<?xml version="1.0" encoding="UTF-8"?>
<svg xmlns="http://www.w3.org/2000/svg" width="160" height="120" viewBox="0 0 160 120" fill="none">
  <g clip-path="url(#clip0_794_15801)">
    <path d="M85.4347 55.8665C77.1658 61.8456 65.9837 60.8948 58.0551 53.5402C45.7122 42.1048 46.5168 19.8122 59.6453 9.35047C63.8783 5.97865 68.6838 4.35156 74.1572 4.69462C66.9283 5.62252 61.3213 9.20997 57.3268 15.3492C55.4091 18.2874 54.0475 21.5706 53.3132 25.0268C52.9634 26.7473 52.7675 28.4972 52.728 30.2544C52.7121 30.7445 52.5531 35.2402 53.0461 35.1814C53.7712 35.0965 54.0415 34.0379 54.3532 33.4857C54.7343 32.8102 55.1593 32.1618 55.6253 31.545C56.5281 30.3523 57.5743 29.2819 58.7389 28.3594C60.6431 26.8895 62.7534 25.7251 64.9978 24.9059C70.0323 22.9978 75.3244 21.9164 80.3302 19.907C82.6423 18.9791 84.8941 17.9466 86.9231 16.4469C91.7382 12.9281 93.217 7.73643 91.083 2.071C90.9367 1.68219 89.9953 1.15616 90.889 0.764092C91.4487 0.525582 91.6268 1.40121 91.8685 1.83249C95.5609 8.46503 94.0662 15.127 87.8263 19.871C83.959 22.8116 79.5192 24.5301 75 26.0788C71.9309 27.1211 68.7856 27.9543 65.777 29.1729C61.5726 30.8817 57.7816 33.3583 56.5317 38.1448C55.1133 43.5685 57.1296 48.3256 60.8506 51.9817C67.981 58.9932 76.2912 59.8885 85.3647 55.1705C85.3647 55.3993 85.387 55.6247 85.3997 55.8534" fill="#D3A146"></path>
    <path d="M94.2246 11.8402C96.3205 11.8631 98.2 12.51 100.385 12.1277C98.623 11.043 96.2505 10.9482 94.5522 10.9776C95.9611 8.26253 105.235 9.46816 109.605 12.3531C104.163 17.9598 96.1773 17.7866 94.2246 11.8402Z" fill="#D3A146"></path>
    <path d="M83.8026 0C86.6649 0.937704 88.8911 1.96035 90.4304 4.07754C90.8884 4.70485 91.4863 5.32237 90.8439 6.30908C90.2014 7.29579 89.3587 7.20105 88.5127 7.02461C86.5568 6.61947 85.5359 5.14265 84.8616 3.3718C84.4991 2.41449 84.2256 1.41146 83.8026 0Z" fill="#D3A146"></path>
    <path d="M0 91.2476C0.73784 89.7806 0.922308 88.9605 0.922308 87.0165V78.2766C0.922308 76.3162 0.73784 75.5125 0 74.0291V73.9834H4.48428V74.0291C3.72736 75.4961 3.56515 76.2966 3.56515 78.2766V87.0165C3.56515 88.9769 3.72736 89.7806 4.48428 91.2476V91.2934H0V91.2476ZM10.1771 91.2934L3.92135 82.7658L8.2689 77.6133C9.76366 75.8425 10.0849 74.7773 9.54104 74.0455V73.9998H13.173V74.0455C11.1726 75.0845 10.228 76.1006 8.98766 77.5676L5.99813 81.0636L11.3348 88.3398C12.1017 89.4661 13.0504 90.4496 14.1398 91.2476L14.1621 91.2934H10.1771Z" fill="white"></path>
    <path d="M29.1149 91.2943H17.3477V91.2485C17.9456 89.8044 18.2445 88.883 18.2445 87.3017V77.9965C18.2445 76.389 17.9456 75.4905 17.3477 74.0496V74.0039H27.9732L28.87 78.2089L28.6856 78.2807C27.4675 76.9738 25.8233 74.5691 24.7992 74.5234L20.9128 74.3568V82.3419H22.891C23.9946 82.3419 24.9582 80.7606 25.7533 79.8621H25.96V85.1845H25.7533C24.9964 84.3579 24.0295 82.7994 22.891 82.7994H20.9128V90.9283L25.0059 90.7617C26.8919 90.6669 28.6379 88.3766 29.9514 86.5338L30.1326 86.6025L29.1149 91.2943Z" fill="white"></path>
    <path d="M35.2798 76.4805L35.372 86.5926C35.372 88.7196 35.6709 89.592 36.9622 91.2485V91.2942H33.4224V91.2485C34.5705 89.592 34.825 88.7196 34.825 86.5926V77.343C34.7327 75.8074 34.3193 75.0984 33.0312 74.0594V74.0137H36.7109L46.3474 87.4552L46.2774 78.7153C46.2551 76.5883 45.9784 75.7127 44.8749 74.0594V74.0137H48.1856V74.0594C47.082 75.7127 46.7831 76.5883 46.7831 78.7153V91.3073L45.9562 91.3792L35.2798 76.4805Z" fill="white"></path>
    <path d="M61.4976 91.2936H57.0133V91.2479C57.748 89.7809 57.9324 88.9608 57.9324 87.0168V74.4019L55.4263 74.4966C54.415 74.5424 52.7358 77.2346 51.54 78.9368L51.3555 78.8649L52.2301 74H66.2808L67.1554 78.8649L66.971 78.9368C65.7751 77.2346 64.1087 74.5424 63.0846 74.4966L60.5785 74.4019V87.0168C60.5785 88.9771 60.7375 89.7809 61.4976 91.2479V91.2936Z" fill="white"></path>
    <path d="M70.8828 91.2476C71.6397 89.7806 71.8019 88.9769 71.8019 87.0165V78.2766C71.8019 76.3162 71.6397 75.5125 70.8828 74.0291V73.9834H75.3671V74.0291C74.607 75.4961 74.448 76.2966 74.448 78.2766V87.0165C74.448 88.9769 74.607 89.7806 75.3671 91.2476V91.2934H70.8828V91.2476Z" fill="white"></path>
    <path d="M89.695 78.6069L89.4883 78.6788C87.9236 75.1795 86.308 74.1046 84.7178 74.1046C83.1276 74.1046 82.2117 75.1436 82.2117 76.7511C82.2117 78.9957 84.1421 79.917 86.1903 80.956C88.442 82.0898 90.8113 83.3411 90.8113 86.6019C90.8113 90.1468 88.0508 91.6367 84.7877 91.6367C83.1674 91.6187 81.563 91.3057 80.049 90.7121L79.5879 86.3437L79.7723 86.2719C81.5661 89.6731 83.3375 91.1728 85.4302 91.1728C87.5229 91.1728 88.5342 89.66 88.5342 87.9349C88.5342 85.6903 86.855 84.5566 84.969 83.6123C82.5774 82.4067 80.1636 81.2272 80.1636 78.156C80.1636 74.8887 82.7078 73.6406 85.4779 73.6406C86.7556 73.6483 88.0227 73.8804 89.2244 74.3268L89.695 78.6069Z" fill="white"></path>
    <path d="M94.9141 91.2936V91.2478C95.6519 89.7808 95.8364 88.9607 95.8364 87.0167V78.2768C95.8364 76.3164 95.6519 75.5127 94.9141 74.0293V73.9836C98.2725 73.9836 99.0771 73.8888 100.957 73.8888C105.924 73.866 106.799 76.1334 106.799 77.9272C106.799 79.7209 105.845 81.3545 103.67 82.1093C106.637 82.583 107.674 84.4976 107.674 86.458C107.674 89.1502 105.765 91.2772 100.995 91.2772L94.9141 91.2936ZM101.148 82.057C103.469 82.0309 104.252 79.9529 104.252 78.0873C104.252 75.6989 102.919 74.3757 100.55 74.3757C99.8523 74.3615 99.1562 74.4417 98.4792 74.6142V82.057H101.148ZM104.875 86.592C104.875 84.2297 103.746 82.5275 101.354 82.5275H98.4919V90.5388C99.1989 90.7228 99.9252 90.8171 100.655 90.8198C103.469 90.8198 104.875 89.1208 104.875 86.592Z" fill="white"></path>
    <path d="M112.372 85.6704V78.2766C112.372 76.3162 112.21 75.5125 111.453 74.0291V73.9834H115.937V74.0291C115.317 75.2348 115.018 76.2966 115.018 78.2766V85.5985C115.018 89.6401 116.742 91.0581 119.296 91.0581C122.721 91.0581 123.939 88.3626 123.939 85.3862V78.7013C123.939 76.5743 123.64 75.6987 122.285 74.0455V73.9998H126.01L126.124 74.0455C124.791 75.6987 124.47 76.5743 124.47 78.7013V85.3633C124.47 88.7416 123.042 91.6495 118.65 91.6495C115.247 91.6495 112.372 89.9244 112.372 85.6704Z" fill="white"></path>
    <path d="M129.852 91.2476C130.586 89.7806 130.771 88.9605 130.771 87.0165V78.2766C130.771 76.3162 130.586 75.5125 129.852 74.0291V73.9834H135.716C139.879 73.9834 141.533 75.6366 141.533 78.1165C141.533 80.0768 140.499 81.7334 138.2 82.4881L140.935 87.9934C141.924 89.9767 142.408 90.4962 143.603 91.1104V91.277H139.555L135.42 82.9357H133.42V87.0002C133.42 88.9605 133.579 89.7643 134.339 91.2313V91.277H129.855L129.852 91.2476ZM133.417 74.4964V82.4816H135.21C138.108 82.4816 138.842 80.4264 138.842 78.11C138.842 75.9601 138.016 74.4702 135.21 74.4702C134.912 74.4702 134.314 74.4702 133.417 74.4964Z" fill="white"></path>
    <path d="M150.525 91.2485C151.259 90.0168 151.444 89.3339 151.444 87.7264V83.4267L148.111 77.3071C147.236 75.7258 146.498 74.7325 145.566 74.0399V73.9941H150.789V74.0399C150.152 74.5365 150.283 75.8597 150.903 77.0164L153.915 82.7112L156.192 78.6238C157.48 76.3074 157.019 74.7717 156.561 74.0497V74.004H159.986V74.0497C158.746 75.2553 158.17 76.1309 157.044 78.1142L154.077 83.4071V87.7297C154.077 89.3633 154.236 90.0168 154.996 91.2518V91.2976H150.512L150.525 91.2485Z" fill="white"></path>
    <path d="M35.4639 120C30.016 120 26.5176 116.056 26.5176 110.998C26.5176 105.941 30.0605 101.997 35.8551 101.997C37.8657 102.03 39.8563 102.413 41.7419 103.131L42.203 106.983L41.9963 107.055C39.8114 103.788 38.11 102.481 35.6356 102.481C31.4058 102.481 29.4276 106.235 29.4276 111.031C29.4276 115.827 31.1736 119.526 35.4512 119.526C37.9604 119.526 39.6842 118.248 39.6842 115.769C39.6842 114.066 39.4552 113.24 38.6251 111.848V111.799H43.1349V111.848C42.3748 113.312 42.2126 114.115 42.2126 116.076V117.494C41.144 118.275 39.169 120 35.4639 120Z" fill="white"></path>
    <path d="M47.2695 119.598C48.0041 118.134 48.1886 117.311 48.1886 115.37V106.627C48.1886 104.667 48.0041 103.863 47.2695 102.399V102.354H53.134C57.2971 102.354 58.9509 104.007 58.9509 106.487C58.9509 108.447 57.9173 110.1 55.6179 110.858L58.353 116.364C59.3421 118.347 59.8255 118.866 61.0213 119.481V119.647H56.9759L52.8414 111.306H50.841V115.37C50.841 117.331 51.0032 118.134 51.7601 119.598V119.647H47.2695V119.598ZM50.8346 102.847V110.835H52.6283C55.5256 110.835 56.2603 108.777 56.2603 106.464C56.2603 104.314 55.4334 102.824 52.6283 102.824C52.323 102.827 51.7219 102.827 50.8283 102.847H50.8346Z" fill="white"></path>
    <path d="M66.3501 119.647H63.2461V119.598C64.3497 118.419 64.7631 117.354 65.431 115.537L70.3764 102.164H70.8344L75.872 115.795C76.6322 117.85 77.1442 118.736 77.9647 119.598V119.647H73.3882V119.598C73.7794 118.915 73.7794 117.425 73.1338 115.677L72.1797 113.126H66.7731L66.2897 114.449C65.2529 117.213 65.8508 118.821 66.3342 119.598L66.3501 119.647ZM69.5018 105.827L66.9576 112.652H71.992L69.5018 105.827Z" fill="white"></path>
    <path d="M82.7263 104.833L82.8185 114.946C82.8185 117.073 83.1175 117.945 84.4087 119.598V119.647H80.8658V119.598C82.0171 117.945 82.2683 117.073 82.2683 114.946V105.683C82.1761 104.147 81.7626 103.438 80.4746 102.399V102.354H84.1606L93.7971 115.795L93.7271 107.055C93.7048 104.928 93.4282 104.052 92.3246 102.399V102.354H95.6385V102.399C94.5317 104.052 94.236 104.928 94.236 107.055V119.647L93.4059 119.716L82.7263 104.833Z" fill="white"></path>
    <path d="M108.116 120C102.665 120 99.1699 116.056 99.1699 110.998C99.1699 105.941 102.713 101.997 108.507 101.997C110.518 102.03 112.509 102.413 114.394 103.131L114.855 106.983L114.649 107.055C112.464 103.788 110.762 102.481 108.288 102.481C104.055 102.481 102.08 106.235 102.08 111.031C102.08 115.827 103.826 119.526 108.104 119.526C110.61 119.526 112.337 118.248 112.337 115.769C112.337 114.066 112.104 113.24 111.277 111.848V111.799H115.784V111.848C115.027 113.312 114.865 114.115 114.865 116.076V117.494C113.796 118.275 111.831 120 108.116 120Z" fill="white"></path>
    <path d="M131.689 119.647H119.922V119.598C120.52 118.157 120.819 117.236 120.819 115.655V106.346C120.819 104.739 120.52 103.84 119.922 102.399V102.354H130.547L131.444 106.558L131.26 106.627C130.042 105.32 128.397 102.919 127.373 102.873L123.487 102.706V110.692H125.465C126.569 110.692 127.536 109.11 128.328 108.212H128.534V113.55H128.328C127.571 112.724 126.604 111.165 125.465 111.165H123.487V119.291L127.58 119.128C129.466 119.033 131.212 116.739 132.526 114.897L132.707 114.968L131.689 119.647Z" fill="white"></path>
  </g>
  <defs>
    <clipPath id="clip0_794_15801">
      <rect width="160" height="120" fill="white"></rect>
    </clipPath>
  </defs>
</svg>
